<svg width="21" height="24" viewBox="0 0 21 24" fill="none" xmlns="http://www.w3.org/2000/svg">
<g id="Apple" clip-path="url(#clip0_2_151)">
<path id="Vector" d="M11.5127 2.0887C13.0895 0.0103763 15.2817 0.000244141 15.2817 0.000244141C15.2817 0.000244141 15.6078 1.95422 14.0413 3.83652C12.3687 5.8464 10.4675 5.51752 10.4675 5.51752C10.4675 5.51752 10.1105 3.93682 11.5127 2.0887ZM10.668 6.88627C11.4792 6.88627 12.9848 5.77118 14.9445 5.77118C18.3178 5.77118 19.6448 8.17149 19.6448 8.17149C19.6448 8.17149 17.0493 9.49849 17.0493 12.7184C17.0493 16.3507 20.2826 17.6026 20.2826 17.6026C20.2826 17.6026 18.0224 23.964 14.9696 23.964C13.5675 23.964 12.4774 23.0191 11 23.0191C9.49442 23.0191 8.00038 23.9993 7.02729 23.9993C4.2396 23.9994 0.717773 17.9648 0.717773 13.1141C0.717773 8.34161 3.69877 5.83805 6.49482 5.83805C8.31251 5.83805 9.72305 6.88627 10.668 6.88627Z" fill="#999999"/>
</g>
<defs>
<clipPath id="clip0_2_151">
<rect width="19.5648" height="24" fill="white" transform="translate(0.717773)"/>
</clipPath>
</defs>
</svg>
