<svg width="361" height="220" viewBox="0 0 361 220" fill="none" xmlns="http://www.w3.org/2000/svg">
<path d="M126.709 95.8721C153.292 95.8721 174.841 74.4104 174.841 47.9361C174.841 21.4617 153.292 0 126.709 0C100.126 0 78.5759 21.4617 78.5759 47.9361C78.5759 74.4104 100.126 95.8721 126.709 95.8721Z" fill="#FFB800"/>
<path d="M126.709 219.939C153.292 219.939 174.841 198.477 174.841 172.003C174.841 145.528 153.292 124.067 126.709 124.067C100.126 124.067 78.5759 145.528 78.5759 172.003C78.5759 198.477 100.126 219.939 126.709 219.939Z" fill="#FFB800"/>
<path d="M245.62 95.8721C272.203 95.8721 293.753 74.4104 293.753 47.9361C293.753 21.4617 272.203 0 245.62 0C219.037 0 197.487 21.4617 197.487 47.9361C197.487 74.4104 219.037 95.8721 245.62 95.8721Z" fill="white"/>
<path d="M245.62 219.939C272.203 219.939 293.753 198.477 293.753 172.003C293.753 145.528 272.203 124.067 245.62 124.067C219.037 124.067 197.487 145.528 197.487 172.003C197.487 198.477 219.037 219.939 245.62 219.939Z" fill="white"/>
<path d="M358.867 219.939C385.45 219.939 407 198.477 407 172.003C407 145.528 385.45 124.067 358.867 124.067C332.284 124.067 310.734 145.528 310.734 172.003C310.734 198.477 332.284 219.939 358.867 219.939Z" fill="white"/>
<path d="M2.13275 219.939C28.7157 219.939 50.2655 198.477 50.2655 172.003C50.2655 145.528 28.7157 124.067 2.13275 124.067C-24.4502 124.067 -46 145.528 -46 172.003C-46 198.477 -24.4502 219.939 2.13275 219.939Z" fill="#FFB800"/>
</svg>
