<svg width="18" height="20" viewBox="0 0 18 20" fill="none" xmlns="http://www.w3.org/2000/svg">
<g id="Document  Align Left 16">
<g id="Vector">
<path fill-rule="evenodd" clip-rule="evenodd" d="M0 11C0 14.7497 0 16.6246 0.954915 17.9389C1.26331 18.3634 1.6366 18.7367 2.06107 19.0451C3.3754 20 5.25027 20 9 20C12.7497 20 14.6246 20 15.9389 19.0451C16.3634 18.7367 16.7367 18.3634 17.0451 17.9389C18 16.6246 18 14.7497 18 11V9C18 8.16106 18 7.41596 17.9893 6.75L17.9192 6.75C17.0672 6.75007 16.5482 6.75011 16.1005 6.67921C13.6401 6.28952 11.7105 4.35988 11.3208 1.8995C11.2499 1.45182 11.2499 0.932837 11.25 0.0808201L11.25 0.0106945C10.584 0 9.83894 0 9 0C5.25027 0 3.3754 0 2.06107 0.954914C1.6366 1.26331 1.26331 1.6366 0.954915 2.06107C0 3.3754 0 5.25027 0 9V11ZM5 5.25C4.58579 5.25 4.25 5.58579 4.25 6C4.25 6.41421 4.58579 6.75 5 6.75H8C8.41421 6.75 8.75 6.41421 8.75 6C8.75 5.58579 8.41421 5.25 8 5.25H5ZM5 9.25C4.58579 9.25 4.25 9.58579 4.25 10C4.25 10.4142 4.58579 10.75 5 10.75H13C13.4142 10.75 13.75 10.4142 13.75 10C13.75 9.58579 13.4142 9.25 13 9.25H5ZM5 13.25C4.58579 13.25 4.25 13.5858 4.25 14C4.25 14.4142 4.58579 14.75 5 14.75H8C8.41421 14.75 8.75 14.4142 8.75 14C8.75 13.5858 8.41421 13.25 8 13.25H5Z" fill="white" fill-opacity="0.5"/>
<path d="M16.3352 5.19768C16.6435 5.24652 17.0243 5.24987 17.9347 5.25C17.8403 3.81037 17.6094 2.83783 17.0451 2.06107C16.7367 1.6366 16.3634 1.26331 15.9389 0.954914C15.1622 0.390566 14.1896 0.159744 12.75 0.0653362C12.7501 0.975676 12.7535 1.35645 12.8023 1.66485C13.0904 3.48339 14.5166 4.90965 16.3352 5.19768Z" fill="white" fill-opacity="0.5"/>
</g>
</g>
</svg>
