<svg width="22" height="21" viewBox="0 0 22 21" fill="none" xmlns="http://www.w3.org/2000/svg">
<path fill-rule="evenodd" clip-rule="evenodd" d="M3.125 11.375C3.125 14.656 3.125 16.2965 3.96055 17.4466C4.2304 17.818 4.55703 18.1446 4.92844 18.4144C6.07848 19.25 7.71898 19.25 11 19.25C14.281 19.25 15.9215 19.25 17.0716 18.4144C17.443 18.1446 17.7696 17.818 18.0394 17.4466C18.875 16.2965 18.875 14.656 18.875 11.375V9.625C18.875 8.89092 18.875 8.23897 18.8656 7.65625L18.8043 7.65625C18.0588 7.65631 17.6047 7.65635 17.2129 7.59431C15.0601 7.25333 13.3717 5.5649 13.0307 3.41206C12.9687 3.02034 12.9687 2.56623 12.9687 1.82072L12.9687 1.75936C12.386 1.75 11.7341 1.75 11 1.75C7.71898 1.75 6.07848 1.75 4.92844 2.58555C4.55703 2.8554 4.2304 3.18203 3.96055 3.55344C3.125 4.70348 3.125 6.34398 3.125 9.625V11.375ZM7.5 6.34375C7.13756 6.34375 6.84375 6.63756 6.84375 7C6.84375 7.36244 7.13756 7.65625 7.5 7.65625H10.125C10.4874 7.65625 10.7812 7.36244 10.7812 7C10.7812 6.63756 10.4874 6.34375 10.125 6.34375H7.5ZM7.5 9.84375C7.13756 9.84375 6.84375 10.1376 6.84375 10.5C6.84375 10.8624 7.13756 11.1562 7.5 11.1562H14.5C14.8624 11.1562 15.1562 10.8624 15.1562 10.5C15.1562 10.1376 14.8624 9.84375 14.5 9.84375H7.5ZM7.5 13.3438C7.13756 13.3438 6.84375 13.6376 6.84375 14C6.84375 14.3624 7.13756 14.6562 7.5 14.6562H10.125C10.4874 14.6562 10.7812 14.3624 10.7812 14C10.7812 13.6376 10.4874 13.3438 10.125 13.3438H7.5Z" fill="white"/>
<path d="M17.4183 6.29797C17.6881 6.3407 18.0213 6.34363 18.8178 6.34375C18.7352 5.08408 18.5333 4.2331 18.0394 3.55344C17.7696 3.18203 17.443 2.8554 17.0716 2.58555C16.3919 2.09175 15.5409 1.88978 14.2813 1.80717C14.2814 2.60372 14.2843 2.9369 14.327 3.20674C14.5791 4.79797 15.827 6.04594 17.4183 6.29797Z" fill="white"/>
</svg>
