<svg width="16" height="16" viewBox="0 0 16 16" fill="none" xmlns="http://www.w3.org/2000/svg">
<g clip-path="url(#clip0_33_338)">
<path d="M12.4087 6.92357C12.4087 8.27923 11.9686 9.53152 11.2273 10.5475L14.9664 14.2896C15.3356 14.6588 15.3356 15.2584 14.9664 15.6276C14.5972 15.9967 13.9976 15.9967 13.6285 15.6276L9.88932 11.8855C8.87331 12.6297 7.62103 13.0669 6.26537 13.0669C2.87179 13.0669 0.12207 10.3171 0.12207 6.92357C0.12207 3.52999 2.87179 0.780273 6.26537 0.780273C9.65895 0.780273 12.4087 3.52999 12.4087 6.92357ZM6.85607 3.85192C6.85607 3.52704 6.59025 3.26122 6.26537 3.26122C5.94048 3.26122 5.67466 3.52704 5.67466 3.85192V4.26541C5.4502 4.31562 5.22573 4.39537 5.01899 4.51646C4.60845 4.7616 4.25403 5.18986 4.25698 5.81305C4.25993 6.41261 4.6114 6.79066 4.9865 7.01513C5.31138 7.21006 5.71601 7.33411 6.03795 7.42862L6.08816 7.44339C6.4603 7.55562 6.73202 7.64422 6.91514 7.75941C7.06577 7.85392 7.08644 7.9189 7.08939 8.0016C7.09235 8.14927 7.03623 8.23788 6.91514 8.31172C6.76746 8.40328 6.53413 8.45939 6.28309 8.45053C5.95525 8.43872 5.64808 8.33534 5.24641 8.19948C5.17847 8.17586 5.10759 8.15223 5.03375 8.1286C4.72363 8.02523 4.38989 8.19358 4.28652 8.50074C4.18314 8.80791 4.35149 9.14461 4.65866 9.24798C4.71477 9.2657 4.7768 9.28637 4.83882 9.31C5.08396 9.39565 5.3675 9.49312 5.67171 9.5581V9.99522C5.67171 10.3201 5.93753 10.5859 6.26241 10.5859C6.5873 10.5859 6.85311 10.3201 6.85311 9.99522V9.58763C7.08939 9.53742 7.32568 9.45472 7.53833 9.32182C7.96068 9.05895 8.27966 8.61002 8.2708 7.99274C8.26194 7.39318 7.92524 7.00627 7.54423 6.76408C7.20458 6.55143 6.77928 6.42147 6.44848 6.32105L6.42781 6.31515C6.04976 6.19996 5.78099 6.11726 5.59197 6.00503C5.43838 5.91347 5.43543 5.86031 5.43543 5.80714C5.43543 5.69786 5.47678 5.61516 5.61855 5.53247C5.77804 5.43795 6.02022 5.38184 6.25355 5.38479C6.53709 5.38774 6.85016 5.44977 7.17505 5.53837C7.49107 5.62107 7.813 5.435 7.89865 5.11898C7.98431 4.80295 7.79528 4.48102 7.47926 4.39537C7.28728 4.34516 7.07463 4.29495 6.85607 4.25655V3.85192Z" fill="#083B41"/>
</g>
<defs>
<clipPath id="clip0_33_338">
<rect width="15.122" height="15.122" fill="white" transform="translate(0.12207 0.780273)"/>
</clipPath>
</defs>
</svg>
