<svg width="97" height="15" viewBox="0 0 97 15" fill="none" xmlns="http://www.w3.org/2000/svg">
<path d="M3.91602 14L0.283203 0.738281H2.92969L5.86914 11.373L8.84766 0.943359H11.2207L14.1992 11.373L17.1387 0.738281H19.7852L16.1523 14H12.4609L10.0293 5.45508L7.60742 14H3.91602ZM22.7695 14H20.2598V4.625H22.7695V14ZM21.5098 3.05273C20.6602 3.05273 20.0742 2.4668 20.0742 1.61719C20.0742 0.767578 20.6602 0.171875 21.5098 0.171875C22.3594 0.171875 22.9551 0.757812 22.9551 1.61719C22.9551 2.4668 22.3594 3.05273 21.5098 3.05273ZM27.5801 8.27734L28.5762 8.46289C30.4316 8.80469 31.3594 9.64453 31.3594 11.2656C31.3594 13.1504 29.7969 14.1953 27.3945 14.1953C25.9883 14.1953 24.6309 13.9414 23.7812 13.5215L24.0449 11.4707C24.9727 11.8613 26.2422 12.125 27.1992 12.125C28.4199 12.125 28.9375 11.8711 28.9375 11.3145C28.9375 10.8164 28.5371 10.5723 27.4434 10.377L26.3203 10.1621C24.5137 9.84961 23.6348 8.93164 23.6348 7.37891C23.6348 5.63086 25.2559 4.42969 27.7461 4.42969C28.918 4.42969 30.0801 4.64453 30.9199 5.01562L30.7051 7.05664C30.0215 6.76367 28.7715 6.5293 27.873 6.5293C26.6426 6.5293 26.0469 6.82227 26.0469 7.37891C26.0469 7.83789 26.457 8.07227 27.5801 8.27734ZM40.2617 11.2852L40.6133 13.3164C39.7051 13.834 38.4453 14.1953 37.0781 14.1953C33.7578 14.1953 31.6289 12.2324 31.6289 9.3125C31.6289 6.44141 33.6602 4.42969 36.4434 4.42969C39.3242 4.42969 41.5117 6.59766 40.8965 10.0645H34.1191C34.373 11.373 35.5449 11.998 37.0879 11.998C38.25 11.998 39.334 11.7246 40.2617 11.2852ZM34.1582 8.38477H38.6504C38.582 7.33984 37.791 6.53906 36.502 6.53906C35.1641 6.53906 34.2656 7.32031 34.1582 8.38477ZM57.6172 0.738281V14H54.9902V8.375H48.5254V14H45.8887V0.738281H48.5254V6.09961H54.9902V0.738281H57.6172ZM64.791 14L64.7422 12.7598C64.1758 13.5801 63.0332 14.1953 61.7539 14.1953C59.9473 14.1953 58.6191 13.1602 58.6191 11.4121C58.6191 9.46875 60.3086 8.53125 62.8379 8.53125C63.5898 8.53125 64.2246 8.63867 64.6836 8.75586V8.32617C64.6836 7.125 63.9121 6.63672 62.4473 6.63672C61.3242 6.63672 60.0547 6.98828 59.3809 7.36914L59.1367 5.24023C59.8203 4.84961 61.2559 4.42969 62.7695 4.42969C65.6113 4.42969 67.1836 5.62109 67.1836 8.13086V14H64.791ZM62.5352 12.3008C63.5703 12.3008 64.5762 11.6562 64.6348 10.6211V10.2207C64.2246 10.1035 63.6973 10.0059 63.0039 10.0059C61.9004 10.0059 61.0898 10.377 61.0898 11.1777C61.0898 11.9297 61.6758 12.3008 62.5352 12.3008ZM73.7812 4.42969C75.9492 4.42969 77.4824 5.85547 77.4824 8.11133V14H74.9727V8.75586C74.9727 7.45703 74.1328 6.75391 73.0391 6.75391C71.9355 6.75391 70.959 7.45703 70.959 8.75586V14H68.459V4.625H70.8418L70.8906 5.70898C71.3789 5.05469 72.3848 4.42969 73.7812 4.42969ZM82.8008 14.1953C80.1445 14.1953 78.2598 12.1348 78.2598 9.30273C78.2598 6.45117 80.1445 4.42969 82.8008 4.42969C84.3047 4.42969 85.2715 4.97656 85.8965 5.75781V0.240234H88.3574V14H85.8965L85.8477 13.0039C85.2227 13.7266 84.1777 14.1953 82.8008 14.1953ZM85.8672 9.29297C85.8672 7.79883 84.793 6.67578 83.3184 6.67578C81.8242 6.67578 80.7793 7.7793 80.7793 9.29297C80.7793 10.7773 81.8242 11.9492 83.3184 11.9492C84.793 11.9492 85.8672 10.7773 85.8672 9.29297ZM93.1582 8.27734L94.1543 8.46289C96.0098 8.80469 96.9375 9.64453 96.9375 11.2656C96.9375 13.1504 95.375 14.1953 92.9727 14.1953C91.5664 14.1953 90.209 13.9414 89.3594 13.5215L89.623 11.4707C90.5508 11.8613 91.8203 12.125 92.7773 12.125C93.998 12.125 94.5156 11.8711 94.5156 11.3145C94.5156 10.8164 94.1152 10.5723 93.0215 10.377L91.8984 10.1621C90.0918 9.84961 89.2129 8.93164 89.2129 7.37891C89.2129 5.63086 90.834 4.42969 93.3242 4.42969C94.4961 4.42969 95.6582 4.64453 96.498 5.01562L96.2832 7.05664C95.5996 6.76367 94.3496 6.5293 93.4512 6.5293C92.2207 6.5293 91.625 6.82227 91.625 7.37891C91.625 7.83789 92.0352 8.07227 93.1582 8.27734Z" fill="#3F3D56"/>
</svg>
