<svg width="100" height="93" viewBox="0 0 100 93" fill="none" xmlns="http://www.w3.org/2000/svg">
<rect width="100" height="93" fill="#1E1E1E"/>
<path d="M-3669 -763C-3669 -764.105 -3668.1 -765 -3667 -765H4522C4523.1 -765 4524 -764.105 4524 -763V1722C4524 1723.1 4523.1 1724 4522 1724H-3667C-3668.1 1724 -3669 1723.1 -3669 1722V-763Z" fill="#444444"/>
<path d="M-3667 -764H4522V-766H-3667V-764ZM4523 -763V1722H4525V-763H4523ZM4522 1723H-3667V1725H4522V1723ZM-3668 1722V-763H-3670V1722H-3668ZM-3667 1723C-3667.55 1723 -3668 1722.55 -3668 1722H-3670C-3670 1723.66 -3668.66 1725 -3667 1725V1723ZM4523 1722C4523 1722.55 4522.55 1723 4522 1723V1725C4523.66 1725 4525 1723.66 4525 1722H4523ZM4522 -764C4522.55 -764 4523 -763.552 4523 -763H4525C4525 -764.657 4523.66 -766 4522 -766V-764ZM-3667 -766C-3668.66 -766 -3670 -764.657 -3670 -763H-3668C-3668 -763.552 -3667.55 -764 -3667 -764V-766Z" fill="white" fill-opacity="0.1"/>
<rect width="328" height="800" transform="translate(-114 -139)" fill="#083B41"/>
<path fill-rule="evenodd" clip-rule="evenodd" d="M16.5134 34.4998C27.5024 15.4664 32.9969 5.94961 40.1703 2.75582C46.4272 -0.0299346 53.5723 -0.0299346 59.8292 2.75582C67.0026 5.94961 72.4971 15.4663 83.4861 34.4998C94.4751 53.5333 99.9696 63.0501 99.1488 70.8593C98.4329 77.6708 94.8603 83.8587 89.3193 87.8844C82.9667 92.4998 71.9777 92.4998 49.9997 92.4998C28.0218 92.4998 17.0328 92.4998 10.6802 87.8844C5.13922 83.8587 1.56666 77.6708 0.850741 70.8593C0.0299575 63.0501 5.52445 53.5333 16.5134 34.4998ZM49.9995 21.2082C52.0015 21.2082 53.6245 22.8311 53.6245 24.8332V53.8332C53.6245 55.8352 52.0015 57.4582 49.9995 57.4582C47.9974 57.4582 46.3745 55.8352 46.3745 53.8332V24.8332C46.3745 22.8311 47.9974 21.2082 49.9995 21.2082ZM49.9995 73.1665C52.6688 73.1665 54.8328 71.0025 54.8328 68.3332C54.8328 65.6638 52.6688 63.4998 49.9995 63.4998C47.3301 63.4998 45.1661 65.6638 45.1661 68.3332C45.1661 71.0025 47.3301 73.1665 49.9995 73.1665Z" fill="#FFB800"/>
</svg>
