<svg width="17" height="16" viewBox="0 0 17 16" fill="none" xmlns="http://www.w3.org/2000/svg">
<g clip-path="url(#clip0_2_155)">
<path d="M16.3099 8.1497C16.3099 7.49419 16.2567 7.01584 16.1416 6.51978H8.65625V9.47843H13.05C12.9614 10.2137 12.4831 11.321 11.42 12.0651L11.4051 12.1641L13.7719 13.9976L13.9358 14.0139C15.4417 12.6232 16.3099 10.5769 16.3099 8.1497Z" fill="#4285F4"/>
<path d="M8.65632 15.945C10.8089 15.945 12.616 15.2363 13.9359 14.0139L11.4201 12.065C10.7469 12.5345 9.84331 12.8623 8.65632 12.8623C6.54804 12.8623 4.75867 11.4716 4.12081 9.54932L4.02731 9.55726L1.56636 11.4618L1.53418 11.5513C2.8452 14.1556 5.53815 15.945 8.65632 15.945Z" fill="#34A853"/>
<path d="M4.1206 9.54936C3.9523 9.0533 3.85489 8.52176 3.85489 7.97257C3.85489 7.42332 3.9523 6.89184 4.11175 6.39577L4.10729 6.29013L1.6155 4.35498L1.53398 4.39376C0.99364 5.47449 0.683594 6.68811 0.683594 7.97257C0.683594 9.25703 0.99364 10.4706 1.53398 11.5513L4.1206 9.54936Z" fill="#FBBC05"/>
<path d="M8.65632 3.08269C10.1534 3.08269 11.1632 3.72934 11.739 4.26974L13.989 2.07285C12.6072 0.788397 10.8089 0 8.65632 0C5.53815 0 2.8452 1.78937 1.53418 4.39371L4.11195 6.39573C4.75867 4.47347 6.54804 3.08269 8.65632 3.08269Z" fill="#EB4335"/>
</g>
<defs>
<clipPath id="clip0_2_155">
<rect width="15.6352" height="16" fill="white" transform="translate(0.682617)"/>
</clipPath>
</defs>
</svg>
