<svg width="49" height="37" viewBox="0 0 49 37" fill="none" xmlns="http://www.w3.org/2000/svg">
<path d="M18.6815 10.3118C21.5569 10.3118 23.8879 8.00345 23.8879 5.15591C23.8879 2.30838 21.5569 0 18.6815 0C15.8061 0 13.4751 2.30838 13.4751 5.15591C13.4751 8.00345 15.8061 10.3118 18.6815 10.3118Z" fill="#083B41"/>
<path d="M18.6815 23.6562C21.5569 23.6562 23.8879 21.3478 23.8879 18.5003C23.8879 15.6528 21.5569 13.3444 18.6815 13.3444C15.8061 13.3444 13.4751 15.6528 13.4751 18.5003C13.4751 21.3478 15.8061 23.6562 18.6815 23.6562Z" fill="#083B41"/>
<path d="M31.5439 10.3118C34.4193 10.3118 36.7503 8.00345 36.7503 5.15591C36.7503 2.30838 34.4193 0 31.5439 0C28.6685 0 26.3375 2.30838 26.3375 5.15591C26.3375 8.00345 28.6685 10.3118 31.5439 10.3118Z" fill="#FFB800"/>
<path d="M31.5439 23.6562C34.4193 23.6562 36.7503 21.3478 36.7503 18.5003C36.7503 15.6528 34.4193 13.3444 31.5439 13.3444C28.6685 13.3444 26.3375 15.6528 26.3375 18.5003C26.3375 21.3478 28.6685 23.6562 31.5439 23.6562Z" fill="#FFB800"/>
<path d="M43.7936 23.6562C46.669 23.6562 49 21.3478 49 18.5003C49 15.6528 46.669 13.3444 43.7936 13.3444C40.9182 13.3444 38.5872 15.6528 38.5872 18.5003C38.5872 21.3478 40.9182 23.6562 43.7936 23.6562Z" fill="#FFB800"/>
<path d="M5.20641 23.6562C8.08183 23.6562 10.4128 21.3478 10.4128 18.5003C10.4128 15.6528 8.08183 13.3444 5.20641 13.3444C2.33099 13.3444 0 15.6528 0 18.5003C0 21.3478 2.33099 23.6562 5.20641 23.6562Z" fill="#083B41"/>
<path d="M18.6815 37C21.5569 37 23.8879 34.6916 23.8879 31.8441C23.8879 28.9966 21.5569 26.6882 18.6815 26.6882C15.8061 26.6882 13.4751 28.9966 13.4751 31.8441C13.4751 34.6916 15.8061 37 18.6815 37Z" fill="#083B41"/>
</svg>
