<svg width="22" height="21" viewBox="0 0 22 21" fill="none" xmlns="http://www.w3.org/2000/svg">
<path d="M5.29318 2.96556C2.62636 4.90311 1.29295 5.87189 0.769249 7.30291C0.727238 7.41771 0.68945 7.534 0.655963 7.65157C0.238517 9.11711 0.747834 10.6846 1.76647 13.8197C2.7851 16.9547 3.29442 18.5222 4.49356 19.4625C4.58976 19.5379 4.68869 19.6098 4.79015 19.678C5.2168 19.9647 5.68707 20.1546 6.24951 20.2805V15.8197C6.24951 13.1963 8.37616 11.0697 10.9995 11.0697C13.6229 11.0697 15.7495 13.1963 15.7495 15.8197V20.2805C16.312 20.1546 16.7822 19.9647 17.2089 19.678C17.3103 19.6098 17.4093 19.5379 17.5055 19.4625C18.7046 18.5222 19.2139 16.9547 20.2326 13.8197C21.2512 10.6846 21.7605 9.11711 21.3431 7.65157C21.3096 7.534 21.2718 7.41771 21.2298 7.30291C20.7061 5.87189 19.3727 4.90312 16.7059 2.96557C14.0391 1.02801 12.7056 0.0592252 11.1828 0.00336104C11.0607 -0.00112035 10.9384 -0.00112035 10.8162 0.00336104C9.2934 0.0592251 7.95999 1.02801 5.29318 2.96556Z" fill="white" fill-opacity="0.5"/>
<path fill-rule="evenodd" clip-rule="evenodd" d="M14.2495 20.4732V15.8197C14.2495 14.0247 12.7944 12.5697 10.9995 12.5697C9.20459 12.5697 7.74951 14.0247 7.74951 15.8197V20.4732C8.62247 20.5279 9.67868 20.5279 10.9995 20.5279C12.3203 20.5279 13.3766 20.5279 14.2495 20.4732ZM11.7495 15.8197C11.7495 15.4054 11.4137 15.0697 10.9995 15.0697C10.5853 15.0697 10.2495 15.4054 10.2495 15.8197V17.8197C10.2495 18.2339 10.5853 18.5697 10.9995 18.5697C11.4137 18.5697 11.7495 18.2339 11.7495 17.8197V15.8197Z" fill="white" fill-opacity="0.5"/>
</svg>
