<svg width="64" height="64" viewBox="0 0 64 64" fill="none" xmlns="http://www.w3.org/2000/svg">
<path d="M32 3C35.8083 3 39.5794 3.75011 43.0978 5.20749C46.6163 6.66488 49.8132 8.80101 52.5061 11.4939C55.199 14.1868 57.3351 17.3837 58.7925 20.9022C60.2499 24.4206 61 28.1917 61 32C61 35.8083 60.2499 39.5794 58.7925 43.0978C57.3351 46.6163 55.199 49.8132 52.5061 52.5061C49.8132 55.199 46.6163 57.3351 43.0978 58.7925C39.5794 60.2499 35.8083 61 32 61C28.1917 61 24.4206 60.2499 20.9022 58.7925C17.3837 57.3351 14.1868 55.199 11.4939 52.5061C8.801 49.8132 6.66487 46.6163 5.20749 43.0978C3.7501 39.5794 3 35.8083 3 32C3 28.1917 3.75011 24.4206 5.2075 20.9022C6.66489 17.3837 8.80101 14.1868 11.4939 11.4939C14.1868 8.80099 17.3838 6.66487 20.9022 5.20749C24.4206 3.7501 28.1917 3 32 3L32 3Z" stroke="#292929" stroke-width="6" stroke-linecap="round" stroke-linejoin="round"/>
<path d="M16.3692 7.57276C19.577 5.52015 23.1577 4.11947 26.9069 3.45069C30.656 2.78191 34.5002 2.85813 38.2199 3.675C41.9396 4.49187 45.462 6.03339 48.5859 8.21154C51.7099 10.3897 54.3742 13.1618 56.4268 16.3697C58.4794 19.5775 59.8801 23.1582 60.5489 26.9074C61.2177 30.6565 61.1414 34.5007 60.3246 38.2204C59.5077 41.9401 57.9662 45.4625 55.788 48.5864C53.6099 51.7104 50.8377 54.3747 47.6299 56.4273C44.4221 58.4799 40.8413 59.8806 37.0922 60.5494C33.343 61.2181 29.4989 61.1419 25.7792 60.3251C22.0595 59.5082 18.5371 57.9667 15.4132 55.7885C12.2892 53.6104 9.62486 50.8382 7.57226 47.6304C5.51965 44.4225 4.11897 40.8418 3.45019 37.0927C2.78142 33.3435 2.85764 29.4994 3.67451 25.7797C4.49138 22.06 6.0329 18.5376 8.21106 15.4136C10.3892 12.2897 13.1613 9.62535 16.3692 7.57275L16.3692 7.57276Z" stroke="#FF0E0E" stroke-width="6" stroke-linecap="round" stroke-linejoin="round"/>
<path d="M29.5 36.5V14H34.5V36.5H29.5ZM29.5 49V44H34.5V49H29.5Z" fill="#FF0E0E"/>
</svg>
