<svg width="64" height="64" viewBox="0 0 64 64" fill="none" xmlns="http://www.w3.org/2000/svg">
<g id="Ring">
<path id="Background" d="M32 3C35.8083 3 39.5794 3.75011 43.0978 5.20749C46.6163 6.66488 49.8132 8.80101 52.5061 11.4939C55.199 14.1868 57.3351 17.3837 58.7925 20.9022C60.2499 24.4206 61 28.1917 61 32C61 35.8083 60.2499 39.5794 58.7925 43.0978C57.3351 46.6163 55.199 49.8132 52.5061 52.5061C49.8132 55.199 46.6163 57.3351 43.0978 58.7925C39.5794 60.2499 35.8083 61 32 61C28.1917 61 24.4206 60.2499 20.9022 58.7925C17.3837 57.3351 14.1868 55.199 11.4939 52.5061C8.801 49.8132 6.66487 46.6163 5.20749 43.0978C3.7501 39.5794 3 35.8083 3 32C3 28.1917 3.75011 24.4206 5.2075 20.9022C6.66489 17.3837 8.80101 14.1868 11.4939 11.4939C14.1868 8.80099 17.3838 6.66487 20.9022 5.20749C24.4206 3.7501 28.1917 3 32 3L32 3Z" stroke="#292929" stroke-width="6" stroke-linecap="round" stroke-linejoin="round"/>
<path id="Line" d="M16.3692 7.57276C19.577 5.52015 23.1577 4.11947 26.9069 3.45069C30.656 2.78191 34.5002 2.85813 38.2199 3.675C41.9396 4.49187 45.462 6.03339 48.5859 8.21154C51.7099 10.3897 54.3742 13.1618 56.4268 16.3697C58.4794 19.5775 59.8801 23.1582 60.5489 26.9074C61.2177 30.6565 61.1414 34.5007 60.3246 38.2204C59.5077 41.9401 57.9662 45.4625 55.788 48.5864C53.6099 51.7104 50.8377 54.3747 47.6299 56.4273C44.4221 58.4799 40.8413 59.8806 37.0922 60.5494C33.343 61.2181 29.4989 61.1419 25.7792 60.3251C22.0595 59.5082 18.5371 57.9667 15.4132 55.7885C12.2892 53.6104 9.62486 50.8382 7.57226 47.6304C5.51965 44.4225 4.11897 40.8418 3.45019 37.0927C2.78142 33.3435 2.85764 29.4994 3.67451 25.7797C4.49138 22.06 6.0329 18.5376 8.21106 15.4136C10.3892 12.2897 13.1613 9.62535 16.3692 7.57275L16.3692 7.57276Z" stroke="#FFB800" stroke-width="6" stroke-linecap="round" stroke-linejoin="round"/>
<path id="Vector" d="M42.8095 19.8699C42.7806 19.8975 42.7535 19.9269 42.7283 19.9579L28.6231 37.6673L20.1226 29.2869C19.5452 28.7567 18.7814 28.468 17.9923 28.4818C17.2032 28.4955 16.4503 28.8105 15.8922 29.3604C15.3341 29.9104 15.0144 30.6523 15.0005 31.4299C14.9866 32.2076 15.2795 32.9601 15.8175 33.5291L26.564 44.1228C26.8535 44.4075 27.1982 44.6319 27.5776 44.7826C27.957 44.9332 28.3634 45.007 28.7723 44.9995C29.1813 44.992 29.5846 44.9035 29.9581 44.7391C30.3316 44.5747 30.6676 44.3379 30.9462 44.0427L47.1593 24.0721C47.7114 23.5011 48.0132 22.739 47.9996 21.9504C47.9859 21.1619 47.6579 20.4103 47.0864 19.8582C46.5149 19.3061 45.7459 18.9978 44.9456 19C44.1452 19.0022 43.3779 19.3147 42.8095 19.8699Z" fill="#FFB800"/>
</g>
</svg>
