<svg width="36" height="36" viewBox="0 0 36 36" fill="none" xmlns="http://www.w3.org/2000/svg">
<g id="Frame 39642">
<path id="Vector" d="M18 8C16.0222 8 14.0888 8.58649 12.4443 9.6853C10.7998 10.7841 9.51809 12.3459 8.76121 14.1732C8.00433 16.0004 7.8063 18.0111 8.19215 19.9509C8.578 21.8907 9.53041 23.6725 10.9289 25.0711C12.3275 26.4696 14.1093 27.422 16.0491 27.8078C17.9889 28.1937 19.9996 27.9957 21.8268 27.2388C23.6541 26.4819 25.2159 25.2002 26.3147 23.5557C27.4135 21.9112 28 19.9778 28 18C27.997 15.3487 26.9425 12.8069 25.0678 10.9322C23.1931 9.05749 20.6513 8.00297 18 8ZM15.5147 19.6804C15.4592 19.7562 15.3892 19.8204 15.3089 19.8692C15.2286 19.918 15.1394 19.9505 15.0465 19.9647C14.9536 19.979 14.8588 19.9748 14.7675 19.9524C14.6763 19.93 14.5903 19.8898 14.5146 19.834C14.4389 19.7783 14.3749 19.7083 14.3263 19.6278C14.2778 19.5473 14.2456 19.4581 14.2315 19.3651C14.2175 19.2722 14.222 19.1774 14.2447 19.0862C14.2673 18.995 14.3078 18.9091 14.3637 18.8336C14.5383 18.5907 14.6323 18.2991 14.6323 18C14.6323 17.7009 14.5383 17.4093 14.3637 17.1664C14.2517 17.0138 14.2049 16.8229 14.2335 16.6358C14.2621 16.4486 14.3638 16.2805 14.5163 16.1683C14.6688 16.0561 14.8596 16.009 15.0468 16.0374C15.234 16.0658 15.4023 16.1673 15.5147 16.3196C15.8696 16.808 16.0608 17.3962 16.0608 18C16.0608 18.6037 15.8696 19.192 15.5147 19.6804ZM17.8207 21.3601C17.7081 21.5122 17.5396 21.6134 17.3524 21.6414C17.1652 21.6694 16.9745 21.6219 16.8223 21.5094C16.6701 21.3969 16.5687 21.2286 16.5405 21.0414C16.5123 20.8542 16.5595 20.6635 16.6719 20.5112C17.2032 19.7817 17.4894 18.9025 17.4894 18C17.4894 17.0975 17.2032 16.2183 16.6719 15.4888C16.5595 15.3365 16.5123 15.1458 16.5405 14.9586C16.5687 14.7714 16.6701 14.6031 16.8223 14.4906C16.9745 14.3781 17.1652 14.3306 17.3524 14.3586C17.5396 14.3866 17.7081 14.4878 17.8207 14.6399C18.5337 15.6152 18.918 16.7919 18.918 18C18.918 19.2081 18.5337 20.3848 17.8207 21.3601ZM20.138 23.0425C20.0257 23.1939 19.8581 23.2948 19.6718 23.3232C19.4854 23.3516 19.2954 23.3053 19.1431 23.1942C18.9909 23.0831 18.8886 22.9164 18.8587 22.7303C18.8289 22.5442 18.8737 22.3538 18.9836 22.2006C19.8695 20.9792 20.3466 19.5089 20.3466 18C20.3466 16.4911 19.8695 15.0208 18.9836 13.7994C18.8725 13.6463 18.8267 13.4554 18.8562 13.2685C18.8857 13.0817 18.9881 12.9142 19.1409 12.8027C19.2938 12.6913 19.4845 12.645 19.6715 12.674C19.8584 12.703 20.0261 12.8049 20.138 12.9574C21.2021 14.4235 21.7752 16.1885 21.7752 18C21.7752 19.8115 21.202 21.5765 20.138 23.0425Z" fill="#EAEAEA"/>
</g>
</svg>
