<svg width="20" height="24" viewBox="0 0 20 24" fill="none" xmlns="http://www.w3.org/2000/svg">
<g clip-path="url(#clip0_4259_5159)">
<path d="M15.142 1.28564C17.0228 4.5432 18.0129 8.23843 18.0129 11.9999C18.0129 15.7614 17.0228 19.4567 15.142 22.7142M10.4277 3.64279C11.8947 6.18368 12.667 9.06596 12.667 11.9999C12.667 14.9339 11.8947 17.8162 10.4277 20.3571M5.92773 5.80707C6.98848 7.66388 7.54691 9.77016 7.54691 11.9142C7.54691 14.0583 6.98848 16.1646 5.92773 18.0214M1.42773 8.14279C2.1922 9.29976 2.59749 10.6362 2.59749 11.9999C2.59749 13.3637 2.1922 14.7001 1.42773 15.8571" stroke="#3F3D56" stroke-width="2.57143" stroke-linecap="round"/>
</g>
<defs>
<clipPath id="clip0_4259_5159">
<rect width="20" height="24" fill="white"/>
</clipPath>
</defs>
</svg>
