<svg width="22" height="21" viewBox="0 0 22 21" fill="none" xmlns="http://www.w3.org/2000/svg">
<g clip-path="url(#clip0_34_1381)">
<path d="M8.0693 9.07211C7.31234 8.31933 6.84375 7.27689 6.84375 6.125C6.84375 4.97311 7.31234 3.93067 8.0693 3.17789C7.63349 2.96391 7.14328 2.84375 6.625 2.84375C4.81282 2.84375 3.34375 4.31282 3.34375 6.125C3.34375 7.93718 4.81282 9.40625 6.625 9.40625C7.14328 9.40625 7.63349 9.28609 8.0693 9.07211Z" fill="white"/>
<path d="M7.71875 6.125C7.71875 4.31282 9.18782 2.84375 11 2.84375C12.8122 2.84375 14.2812 4.31282 14.2812 6.125C14.2812 7.93718 12.8122 9.40625 11 9.40625C9.18782 9.40625 7.71875 7.93718 7.71875 6.125Z" fill="white"/>
<path d="M13.9307 3.17789C14.6877 3.93067 15.1562 4.97311 15.1562 6.125C15.1562 7.27689 14.6877 8.31933 13.9307 9.07211C14.3665 9.28609 14.8567 9.40625 15.375 9.40625C17.1872 9.40625 18.6562 7.93718 18.6562 6.125C18.6562 4.31282 17.1872 2.84375 15.375 2.84375C14.8567 2.84375 14.3665 2.96391 13.9307 3.17789Z" fill="white"/>
<path d="M5.09375 14C5.09375 12.1878 6.56282 10.7188 8.375 10.7188H13.625C15.4372 10.7188 16.9062 12.1878 16.9062 14C16.9062 15.8122 15.4372 17.2812 13.625 17.2812H8.375C6.56282 17.2812 5.09375 15.8122 5.09375 14Z" fill="white"/>
<path d="M0.71875 13.125C0.71875 11.3128 2.18782 9.84375 4 9.84375H8.375C6.07957 9.84375 4.21875 11.7046 4.21875 14C4.21875 14.8968 4.50276 15.7272 4.98573 16.4062H4C2.18782 16.4062 0.71875 14.9372 0.71875 13.125Z" fill="white"/>
<path d="M17.7812 14C17.7812 14.8968 17.4972 15.7272 17.0143 16.4062H18C19.8122 16.4062 21.2812 14.9372 21.2812 13.125C21.2812 11.3128 19.8122 9.84375 18 9.84375H13.625C15.9204 9.84375 17.7812 11.7046 17.7812 14Z" fill="white"/>
</g>
<defs>
<clipPath id="clip0_34_1381">
<rect width="21" height="21" fill="white" transform="translate(0.5)"/>
</clipPath>
</defs>
</svg>
