<svg width="16" height="16" viewBox="0 0 16 16" fill="none" xmlns="http://www.w3.org/2000/svg">
<path d="M8.26183 11.0237C7.98788 11.0237 7.7658 10.8016 7.7658 10.5276L7.7658 5.56732C7.7658 5.29337 7.98788 5.07129 8.26183 5.07129C8.53578 5.07129 8.75786 5.29337 8.75786 5.56732L8.75786 10.5276C8.75786 10.8016 8.53578 11.0237 8.26183 11.0237Z" fill="black"/>
<path d="M5.28564 8.04753C5.28564 7.77358 5.50773 7.5515 5.78168 7.5515H10.742C11.0159 7.5515 11.238 7.77358 11.238 8.04753C11.238 8.32148 11.0159 8.54356 10.742 8.54356H5.78168C5.50773 8.54356 5.28564 8.32148 5.28564 8.04753Z" fill="black"/>
<circle cx="8.26202" cy="8.04767" r="7.2619" stroke="black" stroke-width="0.952381"/>
</svg>
