<svg width="22" height="18" viewBox="0 0 22 18" fill="none" xmlns="http://www.w3.org/2000/svg">
<path d="M12.483 6.7124C12.572 6.4292 12.928 6.4292 13.017 6.7124C13.2496 7.45164 13.9266 7.97473 14.715 7.97473C14.7918 7.97473 14.841 7.99753 14.8777 8.02685C14.9195 8.06027 14.9593 8.11487 14.982 8.18714C15.0279 8.33309 14.9884 8.46797 14.872 8.55534C14.2493 9.02264 14.0001 9.83771 14.2315 10.5733C14.2824 10.7351 14.2248 10.8639 14.1214 10.9415C14.0685 10.9812 14.0133 10.9985 13.9674 10.9999C13.9277 11.0011 13.8745 10.9919 13.8074 10.9415C13.1786 10.4696 12.3214 10.4696 11.6926 10.9415C11.6255 10.9919 11.5723 11.0011 11.5326 10.9999C11.4866 10.9985 11.4315 10.9812 11.3786 10.9415C11.2752 10.8639 11.2176 10.7351 11.2685 10.5733C11.4999 9.83771 11.2507 9.02264 10.628 8.55534C10.5116 8.46797 10.4721 8.33309 10.518 8.18714C10.5407 8.11487 10.5805 8.06027 10.6223 8.02685C10.659 7.99753 10.7082 7.97473 10.785 7.97473C11.5734 7.97473 12.2504 7.45164 12.483 6.7124Z" fill="#FFB800"/>
<path fill-rule="evenodd" clip-rule="evenodd" d="M6 1.81667V0H5.19444C2.32563 0 0 2.32563 0 5.19444C0 6.02618 0.47698 6.78421 1.22681 7.14413L1.71417 7.37806C2.8652 7.93055 2.8652 9.56945 1.71417 10.1219L1.22681 10.3559C0.476981 10.7158 0 11.4738 0 12.3056C0 15.1744 2.32563 17.5 5.19444 17.5H6V15.6833C6 15.2691 6.33579 14.9333 6.75 14.9333C7.16421 14.9333 7.5 15.2691 7.5 15.6833V17.5H16.3056C19.1744 17.5 21.5 15.1744 21.5 12.3056C21.5 11.4738 21.023 10.7158 20.2732 10.3559L19.7858 10.1219C18.6348 9.56945 18.6348 7.93056 19.7858 7.37806L20.2732 7.14413C21.023 6.78421 21.5 6.02618 21.5 5.19444C21.5 2.32563 19.1744 0 16.3056 0H7.5V1.81667C7.5 2.23088 7.16421 2.56667 6.75 2.56667C6.33579 2.56667 6 2.23088 6 1.81667ZM7.5 5.01667C7.5 4.60245 7.16421 4.26667 6.75 4.26667C6.33579 4.26667 6 4.60245 6 5.01667V7.15C6 7.56421 6.33579 7.9 6.75 7.9C7.16421 7.9 7.5 7.56421 7.5 7.15V5.01667ZM6.75 9.6C7.16421 9.6 7.5 9.93579 7.5 10.35V12.4833C7.5 12.8975 7.16421 13.2333 6.75 13.2333C6.33579 13.2333 6 12.8975 6 12.4833V10.35C6 9.93579 6.33579 9.6 6.75 9.6ZM14.4479 6.26233C13.9185 4.57922 11.5815 4.57922 11.0521 6.26233C11.008 6.40245 10.8917 6.47473 10.785 6.47473C9.00955 6.47473 8.38517 8.74751 9.72762 9.75504C9.82911 9.83121 9.88287 9.97947 9.83765 10.1232C9.57931 10.9446 9.91176 11.7161 10.4782 12.1412C11.0481 12.5689 11.891 12.668 12.593 12.1412C12.6883 12.0697 12.8117 12.0697 12.907 12.1412C13.609 12.668 14.4519 12.5689 15.0218 12.1412C15.5882 11.7161 15.9207 10.9446 15.6623 10.1232C15.6171 9.97947 15.6709 9.83121 15.7724 9.75504C17.1148 8.74751 16.4905 6.47473 14.715 6.47473C14.6083 6.47473 14.492 6.40245 14.4479 6.26233Z" fill="#FFB800"/>
</svg>
