<svg width="75" height="75" viewBox="0 0 75 75" fill="none" xmlns="http://www.w3.org/2000/svg">
<g id="Tick Circle">
<path id="Vector" fill-rule="evenodd" clip-rule="evenodd" d="M37.4998 74.5832C57.9804 74.5832 74.5832 57.9804 74.5832 37.4998C74.5832 17.0193 57.9804 0.416504 37.4998 0.416504C17.0193 0.416504 0.416504 17.0193 0.416504 37.4998C0.416504 57.9804 17.0193 74.5832 37.4998 74.5832ZM58.1136 28.23C59.1382 27.0856 59.0411 25.3273 57.8967 24.3027C56.7523 23.2781 54.994 23.3753 53.9694 24.5197L41.4754 38.4748C38.9437 41.3025 37.2388 43.1969 35.7811 44.422C34.3925 45.5892 33.5769 45.8436 32.8644 45.8436C32.1519 45.8436 31.3363 45.5892 29.9477 44.422C28.4901 43.1968 26.7851 41.3025 24.2535 38.4748L21.0303 34.8747C20.0057 33.7303 18.2474 33.6331 17.103 34.6577C15.9586 35.6823 15.8615 37.4406 16.886 38.585L20.2469 42.3389C22.6049 44.9728 24.5716 47.1697 26.3687 48.6802C28.2698 50.278 30.3202 51.4061 32.8644 51.4061C35.4086 51.4061 37.4591 50.278 39.3601 48.6802C41.1572 47.1697 43.124 44.9728 45.4819 42.339L58.1136 28.23Z" fill="#26D44F"/>
</g>
</svg>
