<svg width="22" height="21" viewBox="0 0 22 21" fill="none" xmlns="http://www.w3.org/2000/svg">
<path d="M12.5163 8.7171C12.5943 8.4693 12.9057 8.4693 12.9837 8.7171C13.1871 9.36394 13.7795 9.82164 14.4694 9.82164C14.5366 9.82164 14.5796 9.84159 14.6117 9.86724C14.6483 9.89649 14.6831 9.94426 14.703 10.0075C14.7432 10.1352 14.7086 10.2532 14.6067 10.3297C14.0619 10.7386 13.8438 11.4517 14.0463 12.0954C14.0908 12.237 14.0404 12.3497 13.95 12.4176C13.9037 12.4523 13.8554 12.4674 13.8152 12.4687C13.7805 12.4697 13.734 12.4617 13.6752 12.4176C13.125 12.0046 12.375 12.0046 11.8248 12.4176C11.766 12.4617 11.7195 12.4697 11.6848 12.4687C11.6446 12.4674 11.5963 12.4523 11.55 12.4176C11.4596 12.3497 11.4092 12.237 11.4537 12.0954C11.6562 11.4517 11.4381 10.7386 10.8933 10.3297C10.7914 10.2532 10.7568 10.1352 10.797 10.0075C10.8169 9.94426 10.8517 9.89649 10.8883 9.86724C10.9204 9.84159 10.9634 9.82164 11.0306 9.82164C11.7205 9.82164 12.3129 9.36394 12.5163 8.7171Z" fill="white"/>
<path fill-rule="evenodd" clip-rule="evenodd" d="M6.84375 4.43333V2.84375H6.13889C3.62868 2.84375 1.59375 4.87868 1.59375 7.38889C1.59375 8.11665 2.01111 8.77993 2.6672 9.09486L3.09365 9.29955C4.1008 9.78299 4.1008 11.217 3.09365 11.7004L2.66721 11.9051C2.01111 12.2201 1.59375 12.8833 1.59375 13.6111C1.59375 16.1213 3.62868 18.1562 6.13889 18.1562H6.84375V16.5667C6.84375 16.2042 7.13756 15.9104 7.5 15.9104C7.86244 15.9104 8.15625 16.2042 8.15625 16.5667V18.1562H15.8611C18.3713 18.1562 20.4062 16.1213 20.4062 13.6111C20.4062 12.8833 19.9889 12.2201 19.3328 11.9051L18.9063 11.7004C17.8992 11.217 17.8992 9.78299 18.9063 9.29955L19.3328 9.09486C19.9889 8.77993 20.4062 8.11665 20.4062 7.38889C20.4062 4.87868 18.3713 2.84375 15.8611 2.84375H8.15625V4.43333C8.15625 4.79577 7.86244 5.08958 7.5 5.08958C7.13756 5.08958 6.84375 4.79577 6.84375 4.43333ZM8.15625 7.23333C8.15625 6.8709 7.86244 6.57708 7.5 6.57708C7.13756 6.57708 6.84375 6.8709 6.84375 7.23333V9.1C6.84375 9.46244 7.13756 9.75625 7.5 9.75625C7.86244 9.75625 8.15625 9.46244 8.15625 9.1V7.23333ZM7.5 11.2438C7.86244 11.2438 8.15625 11.5376 8.15625 11.9V13.7667C8.15625 14.1291 7.86244 14.4229 7.5 14.4229C7.13756 14.4229 6.84375 14.1291 6.84375 13.7667V11.9C6.84375 11.5376 7.13756 11.2438 7.5 11.2438ZM14.2357 8.32329C13.7725 6.85057 11.7275 6.85057 11.2643 8.32329C11.2257 8.4459 11.124 8.50914 11.0306 8.50914C9.4771 8.50914 8.93077 10.4978 10.1054 11.3794C10.1942 11.4461 10.2413 11.5758 10.2017 11.7016C9.97564 12.4202 10.2665 13.0953 10.7622 13.4673C11.2608 13.8416 11.9984 13.9283 12.6126 13.4673C12.696 13.4047 12.804 13.4047 12.8874 13.4673C13.5016 13.9283 14.2392 13.8416 14.7378 13.4673C15.2335 13.0953 15.5244 12.4202 15.2983 11.7016C15.2587 11.5758 15.3058 11.4461 15.3946 11.3794C16.5692 10.4978 16.0229 8.50914 14.4694 8.50914C14.376 8.50914 14.2743 8.4459 14.2357 8.32329Z" fill="white"/>
</svg>
