<svg width="26" height="24" viewBox="0 0 26 24" fill="none" xmlns="http://www.w3.org/2000/svg">
<path d="M14.483 11.7124C14.572 11.4292 14.928 11.4292 15.017 11.7124C15.2496 12.4516 15.9266 12.9747 16.715 12.9747C16.7918 12.9747 16.841 12.9975 16.8777 13.0268C16.9195 13.0603 16.9593 13.1149 16.982 13.1871C17.0279 13.3331 16.9884 13.468 16.872 13.5553C16.2493 14.0226 16.0001 14.8377 16.2315 15.5733C16.2824 15.7351 16.2248 15.8639 16.1214 15.9415C16.0685 15.9812 16.0133 15.9985 15.9674 15.9999C15.9277 16.0011 15.8745 15.9919 15.8074 15.9415C15.1786 15.4696 14.3214 15.4696 13.6926 15.9415C13.6255 15.9919 13.5723 16.0011 13.5326 15.9999C13.4866 15.9985 13.4315 15.9812 13.3786 15.9415C13.2752 15.8639 13.2176 15.7351 13.2685 15.5733C13.4999 14.8377 13.2507 14.0226 12.628 13.5553C12.5116 13.468 12.4721 13.3331 12.518 13.1871C12.5407 13.1149 12.5805 13.0603 12.6223 13.0268C12.659 12.9975 12.7082 12.9747 12.785 12.9747C13.5734 12.9747 14.2504 12.4516 14.483 11.7124Z" fill="white" fill-opacity="0.5"/>
<path fill-rule="evenodd" clip-rule="evenodd" d="M8 6.81667V5H7.19444C4.32563 5 2 7.32563 2 10.1944C2 11.0262 2.47698 11.7842 3.22681 12.1441L3.71417 12.3781C4.8652 12.9306 4.8652 14.5694 3.71417 15.1219L3.22681 15.3559C2.47698 15.7158 2 16.4738 2 17.3056C2 20.1744 4.32563 22.5 7.19444 22.5H8V20.6833C8 20.2691 8.33579 19.9333 8.75 19.9333C9.16421 19.9333 9.5 20.2691 9.5 20.6833V22.5H18.3056C21.1744 22.5 23.5 20.1744 23.5 17.3056C23.5 16.4738 23.023 15.7158 22.2732 15.3559L21.7858 15.1219C20.6348 14.5694 20.6348 12.9306 21.7858 12.3781L22.2732 12.1441C23.023 11.7842 23.5 11.0262 23.5 10.1944C23.5 7.32563 21.1744 5 18.3056 5H9.5V6.81667C9.5 7.23088 9.16421 7.56667 8.75 7.56667C8.33579 7.56667 8 7.23088 8 6.81667ZM9.5 10.0167C9.5 9.60245 9.16421 9.26667 8.75 9.26667C8.33579 9.26667 8 9.60245 8 10.0167V12.15C8 12.5642 8.33579 12.9 8.75 12.9C9.16421 12.9 9.5 12.5642 9.5 12.15V10.0167ZM8.75 14.6C9.16421 14.6 9.5 14.9358 9.5 15.35V17.4833C9.5 17.8975 9.16421 18.2333 8.75 18.2333C8.33579 18.2333 8 17.8975 8 17.4833V15.35C8 14.9358 8.33579 14.6 8.75 14.6ZM16.4479 11.2623C15.9185 9.57922 13.5815 9.57922 13.0521 11.2623C13.008 11.4025 12.8917 11.4747 12.785 11.4747C11.0095 11.4747 10.3852 13.7475 11.7276 14.755C11.8291 14.8312 11.8829 14.9795 11.8377 15.1232C11.5793 15.9446 11.9118 16.7161 12.4782 17.1412C13.0481 17.5689 13.891 17.668 14.593 17.1412C14.6883 17.0697 14.8117 17.0697 14.907 17.1412C15.609 17.668 16.4519 17.5689 17.0218 17.1412C17.5882 16.7161 17.9207 15.9446 17.6623 15.1232C17.6171 14.9795 17.6709 14.8312 17.7724 14.755C19.1148 13.7475 18.4905 11.4747 16.715 11.4747C16.6083 11.4747 16.492 11.4025 16.4479 11.2623Z" fill="white" fill-opacity="0.5"/>
</svg>
