<svg width="16" height="19" viewBox="0 0 16 19" fill="none" xmlns="http://www.w3.org/2000/svg">
<path d="M6.90625 10.375C6.90625 9.77094 7.39594 9.28125 8 9.28125C8.60406 9.28125 9.09375 9.77094 9.09375 10.375C9.09375 10.9791 8.60406 11.4688 8 11.4688C7.39594 11.4688 6.90625 10.9791 6.90625 10.375Z" fill="white"/>
<path fill-rule="evenodd" clip-rule="evenodd" d="M8 0.09375C5.22132 0.09375 2.96875 2.34632 2.96875 5.125V6.0995C2.96875 6.15796 2.97639 6.21463 2.99073 6.26857C1.73415 6.7303 0.754706 7.74403 0.339128 9.02305C0.125 9.68207 0.125 10.4964 0.125 12.125C0.125 13.7536 0.125 14.5679 0.339128 15.2269C0.771893 16.5589 1.81613 17.6031 3.14805 18.0359C3.80707 18.25 4.62137 18.25 6.24998 18.25H9.75C11.3786 18.25 12.1929 18.25 12.8519 18.0359C14.1839 17.6031 15.2281 16.5589 15.6609 15.2269C15.875 14.5679 15.875 13.7536 15.875 12.125C15.875 10.4964 15.875 9.68207 15.6609 9.02305C15.2281 7.69113 14.1839 6.64689 12.8519 6.21413C12.7034 6.16585 12.5469 6.12846 12.375 6.0995C11.7844 6 11.0115 6 9.75 6H6.25C5.40537 6 4.77977 6 4.28125 6.02987V5.125C4.28125 3.07119 5.94619 1.40625 8 1.40625C8.83809 1.40625 9.60971 1.6827 10.2312 2.14967C10.521 2.36737 10.9324 2.30896 11.1501 2.01919C11.3678 1.72943 11.3094 1.31804 11.0196 1.10033C10.1786 0.468452 9.13211 0.09375 8 0.09375ZM5.59375 10.375C5.59375 9.04606 6.67106 7.96875 8 7.96875C9.32894 7.96875 10.4062 9.04606 10.4062 10.375C10.4062 11.4764 9.66622 12.405 8.65625 12.6907V15.625C8.65625 15.9874 8.36244 16.2812 8 16.2812C7.63756 16.2812 7.34375 15.9874 7.34375 15.625V12.6907C6.33378 12.405 5.59375 11.4764 5.59375 10.375Z" fill="white"/>
</svg>
